<svg width="29" height="29" viewBox="0 0 29 29" fill="none" xmlns="http://www.w3.org/2000/svg">
<path d="M21 1H7.66667C3.98477 1 1 3.98477 1 7.66667V21C1 24.6819 3.98477 27.6667 7.66667 27.6667H21C24.6819 27.6667 27.6667 24.6819 27.6667 21V7.66667C27.6667 3.98477 24.6819 1 21 1Z" stroke="white" stroke-width="2" stroke-linecap="round" stroke-linejoin="round"/>
<path d="M19.6666 13.4938C19.8312 14.6034 19.6416 15.7367 19.1249 16.7325C18.6083 17.7282 17.7908 18.5357 16.7888 19.04C15.7867 19.5444 14.6512 19.7199 13.5437 19.5417C12.4361 19.3635 11.4129 18.8406 10.6197 18.0473C9.82649 17.2541 9.30358 16.2309 9.12536 15.1234C8.94714 14.0158 9.12269 12.8803 9.62704 11.8783C10.1314 10.8762 10.9388 10.0588 11.9346 9.5421C12.9303 9.02543 14.0636 8.83589 15.1733 9.00044C16.3052 9.16829 17.3531 9.69573 18.1622 10.5049C18.9713 11.314 19.4988 12.3619 19.6666 13.4938Z" stroke="white" stroke-width="2" stroke-linecap="round" stroke-linejoin="round"/>
<path d="M21.6667 7H21.6799" stroke="white" stroke-width="2" stroke-linecap="round" stroke-linejoin="round"/>
</svg>
