<svg width="43" height="43" viewBox="0 0 43 43" fill="none" xmlns="http://www.w3.org/2000/svg">
<rect y="0.333008" width="42.6667" height="42.6667" rx="19" fill="white"/>
<path d="M27.8666 13.6664H14.8C14.0574 13.6664 13.3452 13.9614 12.8201 14.4865C12.295 15.0116 12 15.7237 12 16.4664V25.7997C12 26.5423 12.295 27.2545 12.8201 27.7796C13.3452 28.3047 14.0574 28.5997 14.8 28.5997H27.8666C28.6092 28.5997 29.3214 28.3047 29.8465 27.7796C30.3716 27.2545 30.6666 26.5423 30.6666 25.7997V16.4664C30.6666 15.7237 30.3716 15.0116 29.8465 14.4865C29.3214 13.9614 28.6092 13.6664 27.8666 13.6664ZM14.8 15.533H27.8666C28.1142 15.533 28.3516 15.6314 28.5266 15.8064C28.7016 15.9814 28.8 16.2188 28.8 16.4664L21.3333 21.021L13.8666 16.4664C13.8666 16.2188 13.965 15.9814 14.14 15.8064C14.315 15.6314 14.5524 15.533 14.8 15.533ZM28.8 25.7997C28.8 26.0472 28.7016 26.2846 28.5266 26.4597C28.3516 26.6347 28.1142 26.733 27.8666 26.733H14.8C14.5524 26.733 14.315 26.6347 14.14 26.4597C13.965 26.2846 13.8666 26.0472 13.8666 25.7997V18.5944L20.848 22.8597C20.9899 22.9416 21.1508 22.9847 21.3146 22.9847C21.4785 22.9847 21.6394 22.9416 21.7813 22.8597L28.8 18.5944V25.7997Z" fill="#373737"/>
</svg>
