<svg width="43" height="43" viewBox="0 0 43 43" fill="none" xmlns="http://www.w3.org/2000/svg">
<rect width="42.6667" height="42.6667" rx="19" fill="white"/>
<path d="M28.353 22.2665C28.1469 22.2665 27.9315 22.2009 27.7254 22.1541C27.3081 22.0621 26.898 21.94 26.4983 21.7888C26.0638 21.6307 25.5861 21.6389 25.1572 21.8118C24.7284 21.9847 24.3786 22.3102 24.1753 22.7255L23.9692 23.147C23.0569 22.6394 22.2185 22.0091 21.4776 21.2736C20.7421 20.5327 20.1117 19.6943 19.6042 18.782L19.9976 18.5197C20.4129 18.3163 20.7384 17.9666 20.9113 17.5377C21.0842 17.1089 21.0924 16.6312 20.9343 16.1967C20.7856 15.7962 20.6636 15.3862 20.569 14.9696C20.5222 14.7635 20.4847 14.5481 20.4566 14.3327C20.3429 13.6729 19.9973 13.0754 19.4821 12.6478C18.9669 12.2202 18.316 11.9905 17.6465 12.0003H14.8364C14.4328 11.9965 14.033 12.0797 13.6644 12.2443C13.2957 12.4089 12.9669 12.651 12.7002 12.9541C12.4336 13.2572 12.2354 13.6142 12.1191 14.0008C12.0028 14.3874 11.9712 14.7945 12.0264 15.1944C12.5254 19.1186 14.3175 22.7647 17.1198 25.5567C19.922 28.3488 23.5746 30.1277 27.5006 30.6124H27.8565C28.5473 30.6134 29.2142 30.36 29.7299 29.9005C30.0262 29.6355 30.263 29.3106 30.4244 28.9473C30.5859 28.584 30.6684 28.1905 30.6666 27.793V24.9829C30.6551 24.3322 30.4182 23.7058 29.9962 23.2103C29.5743 22.7149 28.9935 22.3813 28.353 22.2665ZM28.8213 27.8866C28.8211 28.0196 28.7927 28.1511 28.7377 28.2722C28.6828 28.3933 28.6028 28.5014 28.5028 28.5892C28.3985 28.68 28.2761 28.7479 28.1438 28.7882C28.0114 28.8286 27.872 28.8405 27.7347 28.8233C24.2267 28.3735 20.9683 26.7687 18.4734 24.2619C15.9785 21.7551 14.3891 18.4891 13.9559 14.979C13.941 14.8418 13.9541 14.703 13.9944 14.5709C14.0346 14.4389 14.1012 14.3164 14.1901 14.2109C14.2779 14.111 14.3859 14.0309 14.5071 13.976C14.6282 13.9211 14.7596 13.8926 14.8926 13.8924H17.7027C17.9206 13.8876 18.1333 13.9588 18.3042 14.0939C18.4752 14.2289 18.5937 14.4194 18.6394 14.6324C18.6769 14.8884 18.7237 15.1413 18.7799 15.3911C18.8881 15.8849 19.0321 16.3701 19.2108 16.843L17.8994 17.4519C17.7873 17.5033 17.6865 17.5764 17.6027 17.6669C17.5189 17.7574 17.4538 17.8636 17.4111 17.9794C17.3685 18.0952 17.3491 18.2182 17.3541 18.3415C17.3592 18.4647 17.3885 18.5858 17.4405 18.6977C18.7885 21.5853 21.1097 23.9064 23.9973 25.2545C24.2254 25.3482 24.4812 25.3482 24.7092 25.2545C24.826 25.2127 24.9334 25.1482 25.025 25.0646C25.1167 24.9809 25.1908 24.88 25.2431 24.7674L25.8239 23.4561C26.3081 23.6292 26.8023 23.7731 27.3039 23.887C27.5537 23.9432 27.8066 23.99 28.0626 24.0275C28.2756 24.0732 28.4661 24.1917 28.6011 24.3627C28.7362 24.5336 28.8074 24.7463 28.8026 24.9642L28.8213 27.8866Z" fill="#373737"/>
</svg>
